<?xml version="1.0" standalone="no"?>
<svg xmlns:xlink="http://www.w3.org/1999/xlink" id="wave" style="transform:rotate(180deg); transition: 0.3s" viewBox="0 0 1440 140" version="1.1" xmlns="http://www.w3.org/2000/svg"><defs><linearGradient id="sw-gradient-0" x1="0" x2="0" y1="1" y2="0"><stop stop-color="rgba(253, 240, 251, 1)" offset="0%"/><stop stop-color="rgba(253, 240, 251, 1)" offset="100%"/></linearGradient></defs><path style="transform:translate(0, 0px); opacity:1" fill="url(#sw-gradient-0)" d="M0,42L60,53.7C120,65,240,89,360,86.3C480,84,600,56,720,56C840,56,960,84,1080,91C1200,98,1320,84,1440,84C1560,84,1680,98,1800,86.3C1920,75,2040,37,2160,23.3C2280,9,2400,19,2520,39.7C2640,61,2760,93,2880,105C3000,117,3120,107,3240,91C3360,75,3480,51,3600,42C3720,33,3840,37,3960,32.7C4080,28,4200,14,4320,11.7C4440,9,4560,19,4680,30.3C4800,42,4920,56,5040,70C5160,84,5280,98,5400,95.7C5520,93,5640,75,5760,63C5880,51,6000,47,6120,39.7C6240,33,6360,23,6480,37.3C6600,51,6720,89,6840,95.7C6960,103,7080,79,7200,70C7320,61,7440,65,7560,58.3C7680,51,7800,33,7920,32.7C8040,33,8160,51,8280,56C8400,61,8520,51,8580,46.7L8640,42L8640,140L8580,140C8520,140,8400,140,8280,140C8160,140,8040,140,7920,140C7800,140,7680,140,7560,140C7440,140,7320,140,7200,140C7080,140,6960,140,6840,140C6720,140,6600,140,6480,140C6360,140,6240,140,6120,140C6000,140,5880,140,5760,140C5640,140,5520,140,5400,140C5280,140,5160,140,5040,140C4920,140,4800,140,4680,140C4560,140,4440,140,4320,140C4200,140,4080,140,3960,140C3840,140,3720,140,3600,140C3480,140,3360,140,3240,140C3120,140,3000,140,2880,140C2760,140,2640,140,2520,140C2400,140,2280,140,2160,140C2040,140,1920,140,1800,140C1680,140,1560,140,1440,140C1320,140,1200,140,1080,140C960,140,840,140,720,140C600,140,480,140,360,140C240,140,120,140,60,140L0,140Z"/></svg>