<?xml version="1.0" standalone="no"?>
<svg xmlns:xlink="http://www.w3.org/1999/xlink" id="wave" style="transform:rotate(180deg); transition: 0.3s" viewBox="0 0 1440 100" version="1.1" xmlns="http://www.w3.org/2000/svg"><defs><linearGradient id="sw-gradient-0" x1="0" x2="0" y1="1" y2="0"><stop stop-color="rgba(250, 170, 191, 1)" offset="0%"/><stop stop-color="rgba(250, 170, 191, 1)" offset="100%"/></linearGradient></defs><path style="transform:translate(0, 0px); opacity:1" fill="url(#sw-gradient-0)" d="M0,70L48,63.3C96,57,192,43,288,38.3C384,33,480,37,576,33.3C672,30,768,20,864,28.3C960,37,1056,63,1152,65C1248,67,1344,43,1440,41.7C1536,40,1632,60,1728,58.3C1824,57,1920,33,2016,26.7C2112,20,2208,30,2304,28.3C2400,27,2496,13,2592,13.3C2688,13,2784,27,2880,40C2976,53,3072,67,3168,73.3C3264,80,3360,80,3456,76.7C3552,73,3648,67,3744,58.3C3840,50,3936,40,4032,43.3C4128,47,4224,63,4320,68.3C4416,73,4512,67,4608,53.3C4704,40,4800,20,4896,15C4992,10,5088,20,5184,35C5280,50,5376,70,5472,71.7C5568,73,5664,57,5760,45C5856,33,5952,27,6048,21.7C6144,17,6240,13,6336,18.3C6432,23,6528,37,6624,50C6720,63,6816,77,6864,83.3L6912,90L6912,100L6864,100C6816,100,6720,100,6624,100C6528,100,6432,100,6336,100C6240,100,6144,100,6048,100C5952,100,5856,100,5760,100C5664,100,5568,100,5472,100C5376,100,5280,100,5184,100C5088,100,4992,100,4896,100C4800,100,4704,100,4608,100C4512,100,4416,100,4320,100C4224,100,4128,100,4032,100C3936,100,3840,100,3744,100C3648,100,3552,100,3456,100C3360,100,3264,100,3168,100C3072,100,2976,100,2880,100C2784,100,2688,100,2592,100C2496,100,2400,100,2304,100C2208,100,2112,100,2016,100C1920,100,1824,100,1728,100C1632,100,1536,100,1440,100C1344,100,1248,100,1152,100C1056,100,960,100,864,100C768,100,672,100,576,100C480,100,384,100,288,100C192,100,96,100,48,100L0,100Z"/></svg>